<svg width="20" height="21" viewBox="0 0 20 21" fill="none" xmlns="http://www.w3.org/2000/svg">
<path d="M11.6667 20.1751C11.4864 20.1751 11.3109 20.1165 11.1667 20.0082L7.83334 17.5051C7.72984 17.4274 7.64584 17.3266 7.58798 17.2108C7.53013 17.0949 7.5 16.9672 7.5 16.8376V12.1485L1.65334 5.56292C1.2381 5.09391 0.966987 4.51481 0.872571 3.89523C0.778155 3.27565 0.864458 2.64195 1.12111 2.0703C1.37776 1.49865 1.79383 1.01337 2.31932 0.672786C2.84481 0.332206 3.45736 0.150817 4.08334 0.150421L15.9167 0.150421C16.5426 0.151156 17.155 0.332845 17.6803 0.673655C18.2055 1.01446 18.6214 1.49989 18.8777 2.07161C19.1341 2.64332 19.2201 3.277 19.1255 3.89649C19.0308 4.51598 18.7595 5.09493 18.3442 5.56376L12.5 12.1485V19.3407C12.5 19.562 12.4122 19.7742 12.2559 19.9307C12.0996 20.0872 11.8877 20.1751 11.6667 20.1751Z" fill="#F2C144"/>
</svg>
