<svg width="16" height="16" viewBox="0 0 16 16" fill="none" xmlns="http://www.w3.org/2000/svg">
<path d="M0.666667 16C0.489856 16 0.320286 15.9298 0.195262 15.8047C0.0702379 15.6797 0 15.5101 0 15.3333V2.66667C0 1.95942 0.280952 1.28115 0.781049 0.781049C1.28115 0.280952 1.95942 0 2.66667 0L7.33333 0C8.04058 0 8.71885 0.280952 9.21895 0.781049C9.71905 1.28115 10 1.95942 10 2.66667V6C10 6.70724 9.71905 7.38552 9.21895 7.88562C8.71885 8.38572 8.04058 8.66667 7.33333 8.66667H1.33333V15.3333C1.33333 15.5101 1.2631 15.6797 1.13807 15.8047C1.01305 15.9298 0.843478 16 0.666667 16ZM13.3333 2.66667H11.3333V6C11.3323 7.06054 10.9105 8.07734 10.1606 8.82726C9.41068 9.57717 8.39387 9.99894 7.33333 10H7.03733C7.26957 10.404 7.60395 10.7399 8.00693 10.9739C8.40991 11.2079 8.86733 11.3319 9.33333 11.3333H13.3333C14.0406 11.3333 14.7189 11.0524 15.219 10.5523C15.719 10.0522 16 9.37391 16 8.66667V5.33333C16 4.62609 15.719 3.94781 15.219 3.44772C14.7189 2.94762 14.0406 2.66667 13.3333 2.66667Z" fill="#F2C144"/>
</svg>
