<svg width="13" height="15" viewBox="0 0 13 15" fill="none" xmlns="http://www.w3.org/2000/svg">
<path d="M0.722222 0H12.2778C12.4693 0 12.653 0.0760644 12.7885 0.21146C12.9239 0.346855 13 0.530491 13 0.721969V14.6386C13.0001 14.6989 12.985 14.7582 12.9563 14.8111C12.9276 14.8641 12.8861 14.909 12.8355 14.9418C12.785 14.9746 12.727 14.9942 12.6669 14.9989C12.6069 15.0036 12.5466 14.9932 12.4916 14.9686L6.5 12.2951L0.508444 14.9679C0.453485 14.9924 0.393258 15.0028 0.333241 14.9982C0.273223 14.9936 0.215319 14.974 0.164794 14.9413C0.11427 14.9086 0.0727279 14.8637 0.043947 14.8109C0.0151661 14.758 5.90965e-05 14.6988 0 14.6386V0.721969C0 0.530491 0.076091 0.346855 0.211534 0.21146C0.346977 0.0760644 0.530677 0 0.722222 0ZM6.5 8.30265L8.62261 9.41809L8.21744 7.05581L9.93417 5.38228L7.56094 5.03718L6.5 2.88788L5.43833 5.03718L3.06583 5.38228L4.78256 7.05581L4.37811 9.41809L6.5 8.30265Z" fill="#F2C144"/>
</svg>
