<svg width="12" height="15" viewBox="0 0 12 15" fill="none" xmlns="http://www.w3.org/2000/svg">
<path d="M10.2425 10.7581C11.3685 9.57165 12 7.97055 12 6.30218C12 4.6338 11.3685 3.03271 10.2425 1.84624C9.68779 1.26138 9.02715 0.797031 8.29889 0.480111C7.57062 0.16319 6.78921 0 5.99994 0C5.21068 0 4.42927 0.16319 3.701 0.480111C2.97273 0.797031 2.3121 1.26138 1.75739 1.84624C0.628764 3.03544 -0.00291195 4.6411 1.00928e-05 6.31334C0.00293214 7.98557 0.640215 9.58883 1.77299 10.7737L3.92336 12.8606C4.47407 13.4278 5.2167 13.7468 5.99113 13.7489C6.76557 13.7511 7.50978 13.4361 8.06332 12.8719L10.2425 10.7581ZM6.80514 9.15562C6.55491 9.28469 6.27946 9.35184 6.00024 9.35184C5.72102 9.35184 5.44557 9.28469 5.19535 9.15562L3.99536 8.53062C3.69562 8.37572 3.44351 8.13649 3.26759 7.84001C3.09166 7.54353 2.99896 7.20166 2.99997 6.85312V4.99999C2.99879 4.65141 3.09135 4.30945 3.26717 4.01286C3.44299 3.71626 3.69504 3.47689 3.99476 3.32186L5.19475 2.69686C5.44485 2.56737 5.72035 2.49998 5.99964 2.49998C6.27894 2.49998 6.55443 2.56737 6.80453 2.69686L8.00452 3.32186C8.30436 3.4768 8.55653 3.71614 8.73246 4.01274C8.90839 4.30934 9.00104 4.65134 8.99991 4.99999V6.85374C9.00098 7.20222 8.90837 7.54404 8.73255 7.84052C8.55674 8.13699 8.30475 8.37626 8.00512 8.53124L6.80514 9.15562ZM7.76933 4.80874C7.78901 4.87044 7.79934 4.93497 7.79992 4.99999V6.85374C7.80039 6.96998 7.76955 7.08402 7.7109 7.1829C7.65224 7.28179 7.56813 7.36155 7.46813 7.41312L6.26814 8.03812C6.1847 8.08129 6.09281 8.10375 5.99964 8.10375C5.90648 8.10375 5.81458 8.08129 5.73115 8.03812L4.53116 7.41312C4.43117 7.36141 4.34713 7.28152 4.28858 7.18252C4.23003 7.08352 4.19933 6.96939 4.19996 6.85312V4.99999C4.20092 4.93623 4.21124 4.873 4.23056 4.81249L5.53855 5.49374C5.68181 5.56833 5.83978 5.60717 5.99994 5.60717C6.16011 5.60717 6.31807 5.56833 6.46134 5.49374L7.76933 4.80874ZM10.7999 14.375C10.7999 14.5408 10.7367 14.6997 10.6242 14.8169C10.5116 14.9342 10.359 15 10.1999 15H1.79999C1.64086 15 1.48825 14.9342 1.37573 14.8169C1.26321 14.6997 1.19999 14.5408 1.19999 14.375C1.19999 14.2092 1.26321 14.0503 1.37573 13.9331C1.48825 13.8158 1.64086 13.75 1.79999 13.75H10.1999C10.359 13.75 10.5116 13.8158 10.6242 13.9331C10.7367 14.0503 10.7999 14.2092 10.7999 14.375Z" fill="#F2C144"/>
</svg>
